<svg width="32" height="32" viewBox="0 0 32 32" fill="none" xmlns="http://www.w3.org/2000/svg">
  <!-- Circle container -->
  <circle cx="16" cy="16" r="14" stroke="#2dd4bf" stroke-width="2" fill="none"/>
  <!-- Ring left arc -->
  <path d="M6 20 A10 3.5 0 0 1 8 17.5" stroke="#2dd4bf" stroke-width="2" fill="none" stroke-linecap="round"/>
  <!-- Ring right arc -->
  <path d="M24 17.5 A10 3.5 0 0 1 26 20" stroke="#2dd4bf" stroke-width="2" fill="none" stroke-linecap="round"/>
  <!-- Ring front arc -->
  <path d="M6 20 A10 3.5 0 0 0 26 20" stroke="#2dd4bf" stroke-width="2" fill="none" stroke-linecap="round"/>
  <!-- Dome -->
  <path d="M8 18 C8 18 8 9 16 9 C24 9 24 18 24 18" stroke="#2dd4bf" stroke-width="2" fill="none" stroke-linecap="round"/>
  <!-- Plus eye -->
  <g stroke="#2dd4bf" stroke-width="2" stroke-linecap="round">
    <line x1="12" y1="12" x2="12" y2="16"/>
    <line x1="10" y1="14" x2="14" y2="14"/>
  </g>
  <!-- X eye -->
  <g stroke="#2dd4bf" stroke-width="2" stroke-linecap="round">
    <line x1="18" y1="12" x2="22" y2="16"/>
    <line x1="22" y1="12" x2="18" y2="16"/>
  </g>
</svg>
